<svg id="Capa_1" enable-background="new 0 0 512 512" height="512" viewBox="0 0 512 512" width="512" xmlns="http://www.w3.org/2000/svg"><g><path d="m466 211c-3.11 0-420.319.022-421-.04v30.04h121c8.253 0 14.956 6.676 15 14.919.031 5.918 3.207 11.489 8.668 13.771 10.788 4.508 21.18-3.262 21.331-13.465.124-8.366 6.596-15.225 14.963-15.225h90.038c8.284 0 15 6.716 15 15v150c0 8.284 6.716 15 15 15s15-6.716 15-15v-150c0-8.284 6.716-15 15-15h90z"/><path d="m391 361h75v30h-75z"/><path d="m481 165c0-90.98-74.02-165-165-165h-120c-90.98 0-165 74.02-165 165v16h450zm-345-44c-8.28 0-15-6.72-15-15s6.72-15 15-15 15 6.72 15 15-6.72 15-15 15zm60-30c-8.28 0-15-6.72-15-15s6.72-15 15-15 15 6.72 15 15-6.72 15-15 15zm60 30c-8.28 0-15-6.72-15-15s6.72-15 15-15 15 6.72 15 15-6.72 15-15 15zm60-30c-8.28 0-15-6.72-15-15s6.72-15 15-15 15 6.72 15 15-6.72 15-15 15zm60 30c-8.28 0-15-6.72-15-15s6.72-15 15-15 15 6.72 15 15-6.72 15-15 15z"/><path d="m45 391.04c.684-.062 254.212-.04 256-.04v-30h-256z"/><path d="m346 451c-19.555 0-36.228-12.541-42.42-30h-272.58v16c0 41.35 33.64 75 75 75h300c41.36 0 75-33.65 75-75v-16h-92.58c-6.192 17.459-22.865 30-42.42 30z"/><path d="m301 271h-62.57c-6.19 17.461-22.873 30-42.43 30s-36.239-12.539-42.43-30h-123.57c-16.542 0-30 13.458-30 30s13.458 30 30 30h271z"/><path d="m482 271h-91v60h91c16.542 0 30-13.458 30-30s-13.458-30-30-30z"/></g></svg>